<svg width="315" height="269" viewBox="0 0 315 269" fill="none" xmlns="http://www.w3.org/2000/svg">
<g clip-path="url(#clip0_353_5652)">
<path d="M38.75 268H171.5C197.375 268 210.25 255 210.25 228.875V39.25C210.25 13.25 197.375 0 171.5 0H38.75C13 0 0 13.25 0 39.25V228.875C0 255 13 268 38.75 268ZM20.125 228.5V39.625C20.125 27.125 26.875 20.125 39.875 20.125H170.5C183.5 20.125 190.125 27.125 190.125 39.625V228.5C190.125 241 183.5 247.875 170.5 247.875H39.875C26.875 247.875 20.125 241 20.125 228.5Z" fill="white" fill-opacity="0.85"/>
<path d="M115.75 143.875H244.125L262.75 143.125L254 151.625L233.75 170.5C231.75 172.25 230.75 174.875 230.75 177.25C230.75 182.5 234.5 186.375 239.5 186.375C242.25 186.375 244.25 185.375 246.125 183.5L286.875 141.25C289.375 138.75 290.25 136.5 290.25 134C290.25 131.375 289.375 129.25 286.875 126.75L246.125 84.5C244.25 82.625 242.25 81.5 239.5 81.5C234.5 81.5 230.75 85.25 230.75 90.5C230.75 93 231.75 95.625 233.75 97.375L254 116.375L262.875 124.875L244.125 124H115.75C110.5 124 106 128.625 106 134C106 139.375 110.5 143.875 115.75 143.875Z" fill="white" fill-opacity="0.85"/>
</g>
<defs>
<clipPath id="clip0_353_5652">
<rect width="314.375" height="268.125" fill="white"/>
</clipPath>
</defs>
</svg>
