<?xml version="1.0" encoding="UTF-8"?>
<!--Generator: Apple Native CoreSVG 232.5-->
<!DOCTYPE svg
PUBLIC "-//W3C//DTD SVG 1.1//EN"
       "http://www.w3.org/Graphics/SVG/1.1/DTD/svg11.dtd">
<svg version="1.1" xmlns="http://www.w3.org/2000/svg" xmlns:xlink="http://www.w3.org/1999/xlink" width="29.4727" height="25.1367">
 <g>
  <rect height="25.1367" opacity="0" width="29.4727" x="0" y="0"/>
  <path d="M3.63281 25.125L16.0781 25.125C18.5039 25.125 19.7109 23.9062 19.7109 21.457L19.7109 3.67969C19.7109 1.24219 18.5039 0 16.0781 0L3.63281 0C1.21875 0 0 1.24219 0 3.67969L0 21.457C0 23.9062 1.21875 25.125 3.63281 25.125ZM1.88672 21.4219L1.88672 3.71484C1.88672 2.54297 2.51953 1.88672 3.73828 1.88672L15.9844 1.88672C17.2031 1.88672 17.8242 2.54297 17.8242 3.71484L17.8242 21.4219C17.8242 22.5938 17.2031 23.2383 15.9844 23.2383L3.73828 23.2383C2.51953 23.2383 1.88672 22.5938 1.88672 21.4219Z" fill="#ffffff" fill-opacity="0.85"/>
  <path d="M10.8516 15.7617L26.2969 15.7617C28.0312 15.7617 29.4727 14.3086 29.4727 12.5625C29.4727 10.8164 28.0312 9.36328 26.2969 9.36328L10.8516 9.36328C9.10547 9.36328 7.67578 10.8164 7.67578 12.5625C7.67578 14.3086 9.10547 15.7617 10.8516 15.7617Z" fill="#1e1e1e"/>
  <path d="M10.8516 13.4883L22.8867 13.4883L24.6328 13.418L23.8125 14.2148L21.9141 15.9844C21.7266 16.1484 21.6328 16.3945 21.6328 16.6172C21.6328 17.1094 21.9844 17.4727 22.4531 17.4727C22.7109 17.4727 22.8984 17.3789 23.0742 17.2031L26.8945 13.2422C27.1289 13.0078 27.2109 12.7969 27.2109 12.5625C27.2109 12.3164 27.1289 12.1172 26.8945 11.8828L23.0742 7.92188C22.8984 7.74609 22.7109 7.64062 22.4531 7.64062C21.9844 7.64062 21.6328 7.99219 21.6328 8.48438C21.6328 8.71875 21.7266 8.96484 21.9141 9.12891L23.8125 10.9102L24.6445 11.707L22.8867 11.625L10.8516 11.625C10.3594 11.625 9.9375 12.0586 9.9375 12.5625C9.9375 13.0664 10.3594 13.4883 10.8516 13.4883Z" fill="#ffffff" fill-opacity="0.85"/>
 </g>
</svg>
